<svg width="168" height="10" viewBox="0 0 168 10" fill="none" xmlns="http://www.w3.org/2000/svg">
<g clip-path="url(#clip0_1305_5585)">
<path fill-rule="evenodd" clip-rule="evenodd" d="M39.5731 9.49194C39.5446 9.47812 39.52 9.45722 39.5018 9.43121C39.4864 9.40482 39.4775 9.37507 39.476 9.34451C39.4745 9.31395 39.4803 9.28347 39.493 9.25566L43.3876 0.770691C43.4012 0.737121 43.4246 0.708505 43.4548 0.688645C43.4849 0.668784 43.5204 0.658621 43.5564 0.659509H43.6816C43.7172 0.657259 43.7525 0.66657 43.7824 0.686066C43.8122 0.705563 43.8351 0.734209 43.8475 0.767767L47.7043 9.25274C47.7193 9.28005 47.7272 9.31076 47.7272 9.34197C47.7272 9.37319 47.7193 9.4039 47.7043 9.43121C47.686 9.45722 47.6615 9.47812 47.633 9.49194C47.6044 9.50576 47.5729 9.51205 47.5413 9.51021H46.4526C46.2955 9.51021 46.2198 9.45754 46.1354 9.28784L45.5066 7.89806H41.6965L41.0707 9.28784C41.0475 9.3536 41.0045 9.41041 40.9476 9.4503C40.8907 9.49018 40.8228 9.51114 40.7534 9.51021H39.6648C39.6332 9.51205 39.6016 9.50576 39.5731 9.49194ZM43.6409 3.72873H43.539L42.2641 6.60191H44.9391L43.6554 3.76091L43.6409 3.72873ZM32.123 0.796992H34.9901C36.4658 0.796992 37.5806 1.77715 37.5806 3.07623C37.5806 4.04469 36.7744 4.77615 36.233 5.0307L36.1165 5.08629L36.2388 5.12725C36.8297 5.31743 37.831 5.96112 37.831 7.13146C37.831 8.48613 36.6812 9.51018 35.1531 9.51018H32.123C32.0981 9.51018 32.0735 9.50526 32.0506 9.4957C32.0276 9.48614 32.0068 9.47213 31.9892 9.45448C31.9716 9.43682 31.9577 9.41585 31.9482 9.39278C31.9387 9.3697 31.9338 9.34497 31.9338 9.32V0.987173C31.9338 0.936734 31.9537 0.888359 31.9892 0.852693C32.0247 0.817028 32.0728 0.796992 32.123 0.796992ZM34.8387 2.19555H33.4474V4.48649H34.8387C34.9899 4.48616 35.1395 4.4554 35.2786 4.39603C35.4178 4.33665 35.5437 4.24987 35.649 4.14079C35.7542 4.03171 35.8367 3.90254 35.8915 3.76091C35.9463 3.61928 35.9724 3.46806 35.9681 3.31615C35.9739 3.16616 35.9486 3.01659 35.8938 2.87698C35.8389 2.73738 35.7557 2.61081 35.6494 2.50536C35.5431 2.39991 35.4161 2.31789 35.2765 2.26455C35.1369 2.2112 34.9878 2.1877 34.8387 2.19555ZM36.1099 7.38897C36.1677 7.24294 36.1957 7.08671 36.1922 6.92958C36.1922 6.242 35.5053 5.78264 34.8649 5.78557H33.4474V8.12625H35.0133C35.1697 8.12825 35.3249 8.09858 35.4695 8.039C35.6142 7.97943 35.7455 7.89117 35.8555 7.77948C35.9655 7.6678 36.052 7.53499 36.1099 7.38897ZM51.2786 0.796992H50.1143C50.0646 0.79776 50.0172 0.818135 49.9823 0.853718C49.9475 0.889301 49.928 0.937237 49.928 0.987173V9.32C49.928 9.36993 49.9475 9.41787 49.9823 9.45345C50.0172 9.48903 50.0646 9.50941 50.1143 9.51018H54.6987C54.7234 9.51018 54.7479 9.50524 54.7706 9.49565C54.7934 9.48606 54.8141 9.472 54.8314 9.4543C54.8488 9.4366 54.8624 9.41561 54.8716 9.39255C54.8808 9.3695 54.8854 9.34483 54.885 9.32V8.28717C54.885 8.23751 54.8653 8.18988 54.8304 8.15476C54.7955 8.11965 54.7481 8.09992 54.6987 8.09992H51.4677V0.987173C51.465 0.937644 51.4441 0.890878 51.4092 0.855801C51.3743 0.820723 51.3278 0.799789 51.2786 0.796992ZM59.8071 9.51018H58.6428C58.5936 9.50798 58.5471 9.48715 58.5125 9.45187C58.478 9.4166 58.458 9.36948 58.4565 9.32V2.20725H56.4889C56.4395 2.20725 56.3921 2.18752 56.3572 2.15241C56.3222 2.11729 56.3026 2.06966 56.3026 2.02V0.987173C56.3026 0.937237 56.3221 0.889301 56.357 0.853718C56.3918 0.818135 56.4392 0.79776 56.4889 0.796992H61.9611C62.0113 0.796992 62.0594 0.817028 62.0949 0.852693C62.1304 0.888359 62.1503 0.936734 62.1503 0.987173V2.02C62.1495 2.06993 62.1293 2.11755 62.0939 2.15259C62.0585 2.18762 62.0108 2.20726 61.9611 2.20725H59.9963V9.32C59.9935 9.36952 59.9727 9.41629 59.9378 9.45137C59.9029 9.48645 59.8564 9.50738 59.8071 9.51018ZM66.3855 0.796992H65.2183C65.1154 0.796992 65.032 0.880829 65.032 0.984247V9.32C65.032 9.42342 65.1154 9.50725 65.2183 9.50725H66.3855C66.4884 9.50725 66.5718 9.42342 66.5718 9.32V0.984247C66.5718 0.880829 66.4884 0.796992 66.3855 0.796992ZM74.6871 9.61101C74.6577 9.63004 74.6228 9.63884 74.5879 9.63607L74.3609 9.6507C74.3256 9.65164 74.2908 9.64179 74.2612 9.62246C74.2316 9.60313 74.2085 9.57524 74.195 9.54245L71.9653 4.57435V4.54509H71.8518L71.1183 9.36104C71.1077 9.40051 71.0852 9.43573 71.054 9.46191C71.0227 9.48808 70.9842 9.50394 70.9437 9.50733H69.8143C69.7865 9.5093 69.7587 9.50478 69.7329 9.49412C69.7072 9.48346 69.6842 9.46695 69.6659 9.44589C69.6474 9.42223 69.6344 9.39471 69.6278 9.36535C69.6213 9.33599 69.6213 9.30553 69.628 9.27619L71.1183 0.814632C71.1201 0.793467 71.1261 0.772875 71.1359 0.754044C71.1457 0.735213 71.1591 0.718515 71.1753 0.704915C71.1916 0.691314 71.2103 0.681082 71.2305 0.674804C71.2507 0.668526 71.2719 0.666329 71.293 0.66834H71.4938C71.5277 0.667141 71.5612 0.675563 71.5906 0.69264C71.6199 0.709716 71.6439 0.734757 71.6597 0.764893L74.4395 6.71022V6.73948H74.5443L77.3124 0.770744C77.3263 0.738825 77.3497 0.71207 77.3795 0.694229C77.4092 0.676388 77.4438 0.668358 77.4783 0.671266H77.6792C77.7004 0.669264 77.7219 0.67156 77.7423 0.678019C77.7626 0.684477 77.7815 0.694969 77.7978 0.708875C77.8141 0.72278 77.8274 0.739819 77.837 0.758987C77.8466 0.778155 77.8524 0.799065 77.8538 0.820485L79.315 9.29082C79.3239 9.31874 79.3262 9.34838 79.3217 9.37735C79.3171 9.40631 79.3059 9.4338 79.2888 9.4576C79.2701 9.47815 79.247 9.49431 79.2214 9.50493C79.1957 9.51555 79.1681 9.52036 79.1404 9.51904H77.9993C77.9578 9.51453 77.9184 9.49844 77.8855 9.47259C77.8525 9.44674 77.8275 9.41216 77.8131 9.37275L77.0737 4.60068V4.5568H76.9602L74.7509 9.53074C74.739 9.5638 74.7165 9.59199 74.6871 9.61101ZM85.3957 0.67118C84.2158 0.675821 83.0857 1.15003 82.2527 1.99006C81.4198 2.83008 80.9517 3.96754 80.951 5.15358C80.951 6.34006 81.4199 7.47795 82.2545 8.31691C83.0891 9.15588 84.2211 9.62721 85.4015 9.62721C86.5819 9.62721 87.7139 9.15588 88.5485 8.31691C89.3831 7.47795 89.852 6.34006 89.852 5.15358C89.8497 3.96599 89.3796 2.82767 88.5444 1.98764C87.7093 1.14761 86.5771 0.674272 85.3957 0.67118ZM85.3957 8.09992C84.8162 8.09876 84.2501 7.92498 83.7688 7.60053C83.2876 7.27608 82.9128 6.81552 82.6918 6.27705C82.4709 5.73857 82.4136 5.14635 82.5274 4.5752C82.6412 4.00406 82.9208 3.47962 83.3309 3.06815C83.7411 2.65668 84.2634 2.37666 84.8318 2.26344C85.4002 2.15023 85.9893 2.20892 86.5245 2.43209C87.0598 2.65526 87.5172 3.03291 87.839 3.5173C88.1609 4.00169 88.3326 4.5711 88.3326 5.15358C88.3353 5.54176 88.2612 5.9266 88.1145 6.28568C87.9678 6.64476 87.7515 6.97091 87.4781 7.24512C87.2048 7.51934 86.8799 7.73614 86.5224 7.88289C86.1648 8.02965 85.7818 8.10342 85.3957 8.09992ZM98.216 9.48952C98.1859 9.50493 98.1522 9.51207 98.1184 9.5102H96.8173C96.7855 9.51194 96.7539 9.50463 96.7261 9.4891C96.6983 9.47357 96.6754 9.45046 96.6601 9.42243L94.9952 6.08696L94.9806 6.06062H93.5078V9.32002C93.5057 9.36929 93.4855 9.41603 93.4511 9.45117C93.4166 9.48631 93.3705 9.50735 93.3215 9.5102H92.1572C92.1075 9.50943 92.0601 9.48906 92.0253 9.45348C91.9904 9.41789 91.9709 9.36996 91.9709 9.32002V0.987199C91.9709 0.937263 91.9904 0.889327 92.0253 0.853744C92.0601 0.818161 92.1075 0.797786 92.1572 0.797018H95.7403C96.4455 0.793896 97.1231 1.07168 97.625 1.56957C98.1268 2.06746 98.4121 2.74492 98.4182 3.45369C98.4182 4.53918 97.7225 5.49593 96.5961 5.94944L96.5437 5.96992L98.2901 9.22054C98.3072 9.25142 98.3162 9.28616 98.3162 9.32149C98.3162 9.35681 98.3072 9.39155 98.2901 9.42243C98.2717 9.45096 98.2462 9.4741 98.216 9.48952ZM93.5107 4.82884H95.6035L95.6093 4.81421C95.9548 4.80431 96.2827 4.65938 96.5235 4.41024C96.7643 4.1611 96.8989 3.82738 96.8988 3.48002C96.8912 3.14082 96.7522 2.81798 96.5114 2.58026C96.2705 2.34254 95.9469 2.20872 95.6093 2.20728H93.5107V4.82884ZM106.242 0.987173C106.243 0.962337 106.238 0.937671 106.229 0.914614C106.22 0.891556 106.206 0.870567 106.189 0.852868C106.172 0.835168 106.151 0.821112 106.128 0.81152C106.105 0.801927 106.081 0.796989 106.056 0.796992H100.959C100.935 0.796989 100.91 0.801927 100.887 0.81152C100.865 0.821112 100.844 0.835168 100.827 0.852868C100.809 0.870567 100.796 0.891556 100.786 0.914614C100.777 0.937671 100.773 0.962337 100.773 0.987173V9.32C100.773 9.34483 100.777 9.3695 100.786 9.39255C100.796 9.41561 100.809 9.4366 100.827 9.4543C100.844 9.472 100.865 9.48606 100.887 9.49565C100.91 9.50524 100.935 9.51018 100.959 9.51018H106.056C106.081 9.51018 106.105 9.50524 106.128 9.49565C106.151 9.48606 106.172 9.472 106.189 9.4543C106.206 9.4366 106.22 9.41561 106.229 9.39255C106.238 9.3695 106.243 9.34483 106.242 9.32V8.28717C106.242 8.23751 106.223 8.18988 106.188 8.15476C106.153 8.11965 106.106 8.09992 106.056 8.09992H102.304V5.79435H105.448C105.497 5.79435 105.545 5.77472 105.581 5.73968C105.616 5.70465 105.636 5.65702 105.637 5.60709V4.56841C105.635 4.51867 105.614 4.47153 105.579 4.43632C105.544 4.40111 105.497 4.38038 105.448 4.37823H102.304V2.2131H106.062C106.111 2.2131 106.159 2.19338 106.194 2.15826C106.229 2.12314 106.248 2.07551 106.248 2.02585L106.242 0.987173ZM114.489 0.796992H117.359C118.834 0.796992 119.949 1.77715 119.949 3.07623C119.949 4.04469 119.143 4.77615 118.602 5.0307L118.485 5.08629L118.607 5.12725C119.198 5.31743 120.2 5.96112 120.2 7.13146C120.2 8.48613 119.047 9.51018 117.522 9.51018H114.489C114.439 9.50941 114.392 9.48903 114.357 9.45345C114.322 9.41787 114.302 9.36993 114.302 9.32V0.987173C114.302 0.937237 114.322 0.889301 114.357 0.853718C114.392 0.818135 114.439 0.79776 114.489 0.796992ZM117.207 2.19555H115.816V4.48649H117.207C117.358 4.48616 117.508 4.4554 117.647 4.39603C117.786 4.33665 117.912 4.24987 118.018 4.14079C118.123 4.03171 118.205 3.90254 118.26 3.76091C118.315 3.61928 118.341 3.46806 118.337 3.31615C118.343 3.16616 118.317 3.01659 118.262 2.87698C118.207 2.73738 118.124 2.61081 118.018 2.50536C117.912 2.39991 117.785 2.31789 117.645 2.26455C117.506 2.2112 117.356 2.1877 117.207 2.19555ZM118.478 7.38897C118.536 7.24294 118.564 7.08671 118.561 6.92958C118.561 6.242 117.874 5.78264 117.233 5.78557H115.816V8.12625H117.382C117.538 8.12825 117.693 8.09858 117.838 8.039C117.983 7.97943 118.114 7.89117 118.224 7.77948C118.334 7.6678 118.421 7.53499 118.478 7.38897ZM121.87 9.43121C121.888 9.45698 121.912 9.47777 121.94 9.49159C121.968 9.50541 121.999 9.51182 122.03 9.51021H123.122C123.191 9.51187 123.259 9.49116 123.315 9.45113C123.372 9.4111 123.414 9.35386 123.436 9.28784L124.065 7.89806H127.875L128.504 9.28784C128.588 9.45754 128.661 9.51021 128.821 9.51021H129.91C129.941 9.51205 129.973 9.50576 130.001 9.49194C130.03 9.47812 130.054 9.45722 130.073 9.43121C130.088 9.4039 130.096 9.37319 130.096 9.34197C130.096 9.31076 130.088 9.28005 130.073 9.25274L126.216 0.767767C126.203 0.734209 126.181 0.705563 126.151 0.686066C126.121 0.66657 126.086 0.657259 126.05 0.659509H125.925C125.889 0.658199 125.853 0.66819 125.823 0.688105C125.793 0.708019 125.769 0.736874 125.756 0.770691L121.864 9.24981C121.85 9.27798 121.842 9.30949 121.843 9.34128C121.845 9.37307 121.854 9.40405 121.87 9.43121ZM125.907 3.72873H126.009V3.76091L127.307 6.61654H124.632L125.907 3.72873ZM138.258 0.79698H139.422C139.469 0.798923 139.514 0.818105 139.549 0.850947C139.583 0.883788 139.604 0.928044 139.608 0.975457V9.46043C139.606 9.50829 139.585 9.55338 139.551 9.58615C139.516 9.61892 139.47 9.63679 139.422 9.63598H139.131L133.912 3.87205L133.883 3.85449H133.81V9.33754C133.81 9.38748 133.791 9.43541 133.756 9.47099C133.721 9.50658 133.673 9.52695 133.624 9.52772H132.483C132.434 9.52552 132.387 9.50469 132.353 9.46942C132.318 9.43414 132.298 9.38703 132.297 9.33754V0.852572C132.299 0.804712 132.319 0.759617 132.354 0.726847C132.389 0.694077 132.435 0.676204 132.483 0.677019H132.774L137.97 6.23614H137.999H138.071V0.987161C138.071 0.937225 138.091 0.889288 138.126 0.853706C138.161 0.818123 138.208 0.797748 138.258 0.79698ZM149.552 0.796954H148.387C148.338 0.797722 148.29 0.818097 148.255 0.853679C148.22 0.889262 148.201 0.937198 148.201 0.987134V6.23611H148.128H148.099L142.903 0.676993H142.612C142.565 0.676899 142.519 0.695014 142.485 0.727638C142.45 0.760262 142.429 0.804938 142.426 0.852545V9.33751C142.427 9.387 142.447 9.43411 142.482 9.46939C142.517 9.50467 142.563 9.5255 142.612 9.52769H143.753C143.803 9.52693 143.85 9.50655 143.885 9.47097C143.92 9.43538 143.94 9.38745 143.94 9.33751V3.85447H144.012L144.041 3.87202L149.26 9.63595H149.552C149.599 9.63676 149.645 9.61889 149.68 9.58612C149.715 9.55335 149.736 9.50826 149.738 9.4604V0.975431C149.734 0.928018 149.712 0.883761 149.678 0.85092C149.644 0.818079 149.599 0.798897 149.552 0.796954ZM157.956 0.853718C157.991 0.889301 158.01 0.937237 158.01 0.987173V2.02585C158.01 2.07551 157.99 2.12314 157.956 2.15826C157.921 2.19338 157.873 2.2131 157.824 2.2131H154.066V4.37823H157.21C157.259 4.38043 157.305 4.40126 157.34 4.43654C157.375 4.47181 157.395 4.51893 157.396 4.56841V5.60709C157.396 5.65675 157.376 5.70438 157.341 5.7395C157.306 5.77462 157.259 5.79435 157.21 5.79435H154.066V8.09992H157.824C157.873 8.09992 157.921 8.11965 157.956 8.15476C157.99 8.18988 158.01 8.23751 158.01 8.28717V9.32C158.01 9.36993 157.991 9.41787 157.956 9.45345C157.921 9.48903 157.873 9.50941 157.824 9.51018H152.727C152.702 9.51018 152.678 9.50526 152.655 9.4957C152.632 9.48614 152.611 9.47213 152.593 9.45448C152.576 9.43682 152.562 9.41585 152.552 9.39278C152.543 9.3697 152.538 9.34497 152.538 9.32V0.987173C152.538 0.936734 152.558 0.888359 152.593 0.852693C152.629 0.817028 152.677 0.796992 152.727 0.796992H157.824C157.873 0.79776 157.921 0.818135 157.956 0.853718ZM166.763 9.51022C166.796 9.51217 166.829 9.50504 166.859 9.4896C166.889 9.47416 166.914 9.45096 166.932 9.42244C166.949 9.39157 166.958 9.35683 166.958 9.3215C166.958 9.28618 166.949 9.25143 166.932 9.22056L165.185 5.96994L165.237 5.94946C166.361 5.49595 167.06 4.5392 167.06 3.45371C167.053 2.74443 166.768 2.06652 166.265 1.56855C165.763 1.07057 165.084 0.793134 164.379 0.797033H160.81C160.785 0.797033 160.761 0.801951 160.738 0.811509C160.715 0.821066 160.694 0.835074 160.676 0.852734C160.659 0.870394 160.645 0.89136 160.635 0.914433C160.626 0.937507 160.621 0.962239 160.621 0.987214V9.32004C160.621 9.37048 160.641 9.41885 160.676 9.45452C160.712 9.49018 160.76 9.51022 160.81 9.51022H161.975C162.024 9.50736 162.07 9.48632 162.104 9.45118C162.139 9.41604 162.159 9.36931 162.161 9.32004V6.06064H163.634V6.08697L165.299 9.42244C165.313 9.45072 165.335 9.47414 165.363 9.48975C165.39 9.50537 165.421 9.51249 165.453 9.51022H166.763ZM164.245 4.82886H162.152V2.20729H164.245C164.582 2.20873 164.906 2.34256 165.147 2.58028C165.388 2.818 165.527 3.14083 165.534 3.48004C165.535 3.82739 165.4 4.16111 165.159 4.41026C164.918 4.6594 164.59 4.80432 164.245 4.81423V4.82886ZM3.79554 9.51018H2.63124C2.58175 9.50803 2.53486 9.4873 2.49983 9.45209C2.4648 9.41688 2.44418 9.36974 2.44204 9.32V2.20725H0.474374C0.424967 2.20725 0.377585 2.18752 0.342649 2.15241C0.307713 2.11729 0.288086 2.06966 0.288086 2.02V0.987173C0.28808 0.937237 0.307613 0.889301 0.342467 0.853718C0.377322 0.818135 0.424701 0.79776 0.474374 0.796992H5.95823C6.0079 0.79776 6.05528 0.818135 6.09014 0.853718C6.12499 0.889301 6.14452 0.937237 6.14452 0.987173V2.02C6.14452 2.06966 6.12489 2.11729 6.08995 2.15241C6.05502 2.18752 6.00764 2.20725 5.95823 2.20725H3.98183V9.32C3.98041 9.36948 3.96041 9.4166 3.92586 9.45187C3.8913 9.48715 3.84475 9.50798 3.79554 9.51018ZM14.7458 9.51018H15.9101C15.9596 9.50803 16.0065 9.4873 16.0415 9.45209C16.0765 9.41688 16.0971 9.36974 16.0993 9.32V0.987173C16.0971 0.937424 16.0765 0.89029 16.0415 0.85508C16.0065 0.819869 15.9596 0.799143 15.9101 0.796992H14.7458C14.6961 0.79776 14.6487 0.818135 14.6139 0.853718C14.579 0.889301 14.5595 0.937237 14.5595 0.987173V4.37238H10.3767V0.987173C10.3767 0.936734 10.3568 0.888359 10.3213 0.852693C10.2859 0.817028 10.2377 0.796992 10.1875 0.796992H9.02325C8.97404 0.799188 8.92749 0.820017 8.89294 0.855294C8.85838 0.890572 8.83838 0.937686 8.83696 0.987173V9.32C8.83838 9.36948 8.85838 9.4166 8.89294 9.45187C8.92749 9.48715 8.97404 9.50798 9.02325 9.51018H10.1875C10.2124 9.51018 10.237 9.50526 10.26 9.4957C10.2829 9.48614 10.3038 9.47213 10.3213 9.45448C10.3389 9.43682 10.3528 9.41585 10.3623 9.39278C10.3719 9.3697 10.3767 9.34497 10.3767 9.32V5.80897H14.5595V9.32C14.5595 9.36993 14.579 9.41787 14.6139 9.45345C14.6487 9.48903 14.6961 9.50941 14.7458 9.51018ZM24.1125 0.852693C24.148 0.888359 24.1679 0.936734 24.1679 0.987173V2.02585C24.1672 2.07578 24.1469 2.1234 24.1115 2.15844C24.0761 2.19348 24.0284 2.21311 23.9787 2.2131H20.2209V4.37823H23.3646C23.414 4.38038 23.4609 4.40111 23.496 4.43632C23.531 4.47153 23.5516 4.51867 23.5538 4.56841V5.60709C23.553 5.65702 23.5327 5.70465 23.4973 5.73968C23.4619 5.77472 23.4142 5.79435 23.3646 5.79435H20.2209V8.09992H23.9787C24.0284 8.09991 24.0761 8.11954 24.1115 8.15458C24.1469 8.18961 24.1672 8.23724 24.1679 8.28717V9.32C24.1679 9.34497 24.163 9.3697 24.1535 9.39278C24.144 9.41585 24.1301 9.43682 24.1125 9.45448C24.0949 9.47213 24.0741 9.48614 24.0511 9.4957C24.0282 9.50526 24.0036 9.51018 23.9787 9.51018H18.882C18.8323 9.50941 18.785 9.48903 18.7501 9.45345C18.7152 9.41787 18.6957 9.36993 18.6957 9.32V0.987173C18.6957 0.937237 18.7152 0.889301 18.7501 0.853718C18.785 0.818135 18.8323 0.79776 18.882 0.796992H23.9787C24.0289 0.796992 24.077 0.817028 24.1125 0.852693Z" fill="white"/>
</g>
<defs>
<clipPath id="clip0_1305_5585">
<rect width="166.774" height="8.96188" fill="white" transform="translate(0.288086 0.671143)"/>
</clipPath>
</defs>
</svg>
