<svg width="24" height="34" viewBox="0 0 24 34" fill="none" xmlns="http://www.w3.org/2000/svg">
<path d="M21.0602 3.4999L16.0562 0.317402C15.8401 0.171278 15.5858 0.0932617 15.3257 0.0932617C15.0656 0.0932617 14.8113 0.171278 14.5952 0.317402L1.04858 9.05493C0.937569 9.12137 0.845427 9.2156 0.781061 9.32849C0.716695 9.44139 0.682284 9.56913 0.681152 9.69937V30.4849C0.68403 30.6449 0.735783 30.8001 0.829339 30.9292C0.922896 31.0584 1.05369 31.1553 1.20386 31.2066L8.26806 33.8219C8.46141 33.8918 8.66761 33.9179 8.87206 33.8984C9.07652 33.879 9.27425 33.8144 9.45126 33.7094L22.4008 25.2124C23.0395 24.7909 23.3216 24.6055 23.3216 23.9522V17.9205C23.3458 17.6716 23.3025 17.4207 23.1961 17.1948C23.0898 16.9689 22.9245 16.7765 22.718 16.6382L20.1066 14.994C19.8201 14.7998 19.3521 14.6276 19.7589 14.1641C19.8573 14.0538 19.9776 13.9037 20.1438 13.7227L21.6747 12.1491C22.0837 11.7232 22.0925 10.5093 22.0925 10.1849V5.41999C22.1194 5.03398 22.0365 4.64825 21.8536 4.30812C21.6708 3.96799 21.3955 3.6876 21.0602 3.4999V3.4999ZM15.5925 13.4314L13.4951 15.7885C12.8609 16.4903 12.9965 16.689 13.6373 17.0752L15.5269 18.2979C15.6161 18.3455 15.6904 18.4171 15.7418 18.5047C15.7931 18.5924 15.8194 18.6926 15.8178 18.7944V26.477C15.8168 26.5703 15.7914 26.6617 15.7442 26.7419C15.6969 26.8222 15.6295 26.8884 15.5488 26.9339L12.9418 28.6487C12.8607 28.7006 12.7691 28.7335 12.6737 28.7449C12.5783 28.7564 12.4816 28.7461 12.3907 28.7149L7.55508 27.0332C7.44066 26.996 7.3406 26.9237 7.26886 26.8264C7.19711 26.729 7.15725 26.6115 7.15485 26.4903V7.68879C7.15363 7.58513 7.17584 7.48256 7.2198 7.38886C7.26376 7.29517 7.32831 7.21282 7.40855 7.14808L11.389 4.55705C11.5135 4.49922 11.6489 4.46927 11.7859 4.46927C11.923 4.46927 12.0584 4.49922 12.1829 4.55705L15.4416 6.68019C15.7194 6.85675 15.8222 6.98034 15.8222 7.21649V12.8819C15.8257 12.9839 15.8072 13.0856 15.7679 13.1797C15.7286 13.2738 15.6695 13.3582 15.5947 13.427L15.5925 13.4314Z" fill="white"/>
</svg>
